<?xml version="1.0" encoding="UTF-8"?>
<svg xmlns="http://www.w3.org/2000/svg" viewBox="0 0 423.35 629.87">
  <defs>
    <style>
      .cls-1, .cls-2 {
        fill: none;
        stroke: #000;
        stroke-miterlimit: 10;
      }

      .cls-2 {
        stroke-width: 6px;
      }
    </style>
  </defs>
  <g id="Sails">
    <g>
      <path d="M234.35,306.76c6.74,6.58,14.42,17.68,19.26,25.74,12.29,25.04,25.62,53.46,27.06,81.64-4.67-.47-11.13-.97-18.85-1.07-11-.14-19.41.61-27.61,1.36-5.87.54-13.5,1.38-22.41,2.76,13.28-62.29-11.65-126.62-63.75-162.96-.96-.95-.95-1.37-.8-2.69,30.76,6.56,66.61,31.18,87.1,55.21Z"/>
      <path d="M197.98,417.74c-4.66-.09-10.45-.11-17.11.06-8.17.21-14.35.62-18.25.89-5.08.35-11.18.84-18.1,1.58,5.76-15.15,12.22-29.89,16.11-45.71,7.05-28.66,8.41-59.33-1.53-87.47l-9.91-22.35c.81.32,2.04.84,3.49,1.56,7.24,3.6,14.51,9.6,25.8,27.63,4.29,6.86,9.61,16.18,14.83,27.78,5.5,13.76,12.36,36.59,10.4,64.77-.84,12.09-3.13,22.62-5.72,31.26Z"/>
    </g>
    <g>
      <path class="cls-1" d="M207.58,141.84c77.31-10.55,209.75,121.89,199.21,199.21-3.74,27.55-25.68,46.37-51.43,69.47-18.12,16.29-41.52,31.62-71.63,42.93-75.05,28.2-196.68,39.82-205.78-2.41-8.54-39.78-12.44-109.72,17.24-186.13,15.12-38.99,36.27-64.09,42.93-71.63,22.84-26.02,41.92-47.69,69.47-51.43Z"/>
      <path class="cls-1" d="M91.61,440.98c5.91,35.93,111.01,20.4,176.82-7.23,26.38-11.11,47.19-25.38,63.53-40.19,23.2-21.02,42.88-38.16,47.36-62.04,12.57-66.96-95.27-174.8-162.26-162.26-23.87,4.48-41.2,23.99-62.04,47.36-6.05,6.82-25.39,29.34-40.16,63.56-29,67.01-28.81,126.98-23.26,160.79Z"/>
      <path class="cls-1" d="M217.62,529.97c-77.31,10.55-209.75-121.89-199.21-199.21,3.74-27.55,25.68-46.37,51.43-69.47,18.12-16.29,41.52-31.62,71.63-42.93,75.05-28.2,196.68-39.82,205.78,2.41,8.54,39.78,12.44,109.72-17.24,186.13-15.12,38.99-36.27,64.09-42.93,71.63-22.84,26.02-41.92,47.69-69.47,51.43Z"/>
      <path class="cls-1" d="M333.58,230.81c-5.88-35.9-110.98-20.37-176.82,7.28-26.38,11.06-47.19,25.33-63.53,40.14-23.17,21.05-42.9,38.19-47.36,62.04-12.54,66.99,95.3,174.83,162.26,162.26,23.85-4.46,41.23-23.96,62.04-47.36,6.05-6.82,25.39-29.34,40.17-63.5,28.99-67.06,28.83-127.01,23.25-160.85Z"/>
      <path class="cls-1" d="M406.62,332.91c11.36,77.43-119.71,208.49-197.13,197.13-27.59-4.03-46.64-26.17-70.01-52.16-16.48-18.29-32.05-41.85-43.68-72.08-28.98-75.35-41.88-197.11.26-205.76,39.69-8.12,109.59-11.29,186.32,19.19,39.15,15.53,64.47,36.94,72.08,43.68,26.26,23.11,48.13,42.42,52.16,70.01Z"/>
      <path class="cls-1" d="M106.25,213.82c-35.87,5.54-19.27,110.78,9.08,176.91,11.39,26.49,25.88,47.45,40.86,63.95,21.26,23.42,38.61,43.28,62.53,48.01,67.09,13.27,173.81-93.45,160.57-160.57-4.73-23.92-24.44-41.47-48.01-62.53-6.88-6.13-29.6-25.7-63.98-40.83-67.31-29.7-127.31-30.16-161.05-24.94Z"/>
      <path class="cls-1" d="M18.57,338.9c-11.36-77.43,119.71-208.49,197.13-197.13,27.59,4.03,46.64,26.17,70.01,52.16,16.48,18.29,32.05,41.85,43.68,72.08,28.98,75.35,41.88,197.11-.26,205.76-39.69,8.12-109.59,11.29-186.32-19.19-39.15-15.53-64.47-36.94-72.08-43.68-26.26-23.11-48.13-42.42-52.16-70.01Z"/>
      <path class="cls-1" d="M318.96,458c35.87-5.54,19.21-110.77-9.13-176.9-11.36-26.52-25.82-47.46-40.8-63.96-21.29-23.39-38.64-43.3-62.53-48.01-67.15-13.26-173.86,93.45-160.57,160.57,4.71,23.9,24.39,41.48,48.01,62.53,6.88,6.13,29.6,25.7,63.93,40.83,67.37,29.69,127.34,30.13,161.1,24.93Z"/>
    </g>
  </g>
  <g id="D">
    <ellipse class="cls-2" cx="212.6" cy="335.91" rx="207.75" ry="205.59"/>
  </g>
</svg>